REM MD5 2127bba8360a6f54fac09cf407dd2bcc
FILE "Euro Demo 08-99 (Germany).bin" BINARY
  TRACK 01 MODE2/2352
    INDEX 01 00:00:00
  TRACK 02 AUDIO
    INDEX 00 43:08:28
    INDEX 01 43:10:28
  TRACK 03 AUDIO
    INDEX 00 43:26:36
    INDEX 01 43:28:36
  TRACK 04 AUDIO
    INDEX 00 43:45:61
    INDEX 01 43:47:61
  TRACK 05 AUDIO
    INDEX 00 44:21:48
    INDEX 01 44:23:48
  TRACK 06 AUDIO
    INDEX 00 44:52:55
    INDEX 01 44:54:55
REM LEADOUT 47:56:12
